<svg width="129" height="104" viewBox="0 0 129 104" fill="none" xmlns="http://www.w3.org/2000/svg">
<path d="M9.675 12.9C4.33359 12.9 0 17.2336 0 22.575C0 25.6186 1.43109 28.4808 3.87 30.315L47.73 63.21C50.0278 64.9233 53.1722 64.9233 55.47 63.21L67.0397 54.5429C71.857 42.4894 83.1042 33.7214 96.5283 32.4113L99.33 30.315C101.769 28.4808 103.2 25.6186 103.2 22.575C103.2 17.2336 98.8664 12.9 93.525 12.9H9.675ZM59.34 68.37C54.7444 71.8168 48.4556 71.8168 43.86 68.37L0 35.475V77.4001C0 84.5152 5.78484 90.3001 12.9 90.3001H72.6028C67.5436 84.1726 64.5 76.2915 64.5 67.725C64.5 66.5963 64.5605 65.4877 64.6612 64.3791L59.34 68.37ZM129 67.725C129 60.0271 125.942 52.6445 120.499 47.2013C115.056 41.758 107.673 38.7 99.975 38.7C92.2771 38.7 84.8945 41.758 79.4512 47.2013C74.008 52.6445 70.95 60.0271 70.95 67.725C70.95 75.423 74.008 82.8056 79.4512 88.2488C84.8945 93.6921 92.2771 96.7501 99.975 96.7501C107.673 96.7501 115.056 93.6921 120.499 88.2488C125.942 82.8056 129 75.423 129 67.725ZM113.54 58.9974C114.79 60.2471 114.79 62.303 113.54 63.5527L99.0276 78.0652C97.778 79.3149 95.722 79.3149 94.4723 78.0652L86.4098 70.0027C85.1602 68.753 85.1602 66.6971 86.4098 65.4474C87.6595 64.1977 89.7155 64.1977 90.9651 65.4474L96.75 71.2322L108.985 58.9974C110.235 57.7477 112.29 57.7477 113.54 58.9974Z" fill="#165C08"/>
</svg>
