<svg width="427" height="410" viewBox="0 0 427 410" fill="none" xmlns="http://www.w3.org/2000/svg">
<g clip-path="url(#clip0_115_45)">
<path d="M402.381 391.811C399.715 391.811 397.05 391.61 394.384 391.106C302.279 374.089 196.254 342.067 95.7577 300.983C72.9535 291.618 61.8969 265.336 71.0778 242.075C80.2587 218.814 106.025 207.536 128.829 216.901C223.896 255.77 323.8 285.979 410.179 301.99C434.366 306.42 450.358 329.983 446.015 354.654C442.164 376.505 423.507 391.811 402.381 391.811Z" fill="#6CA45E"/>
<path d="M399.025 214.283C397.939 214.283 396.951 214.283 395.866 214.182C246.207 203.508 127.645 186.49 33.4661 162.122C9.67473 155.979 -4.73832 131.309 1.38229 107.041C7.40418 82.7728 31.5905 68.1717 55.3819 74.3142C144.328 97.3738 257.757 113.586 402.085 123.857C426.567 125.569 445.028 147.219 443.35 172.192C441.671 196.057 422.125 214.283 399.025 214.283Z" fill="#6CA45E"/>
<path d="M75.619 165.646C61.3046 165.646 48.1749 164.841 37.0196 162.927C12.8334 158.799 -3.45537 135.337 0.59213 110.666C4.63963 85.9951 27.6413 69.3801 51.8276 73.5087C74.9279 77.5365 135.147 74.6163 234.755 54.6784C311.164 39.3724 385.006 18.7296 414.424 4.32995C436.538 -6.4446 463.093 3.12159 473.656 25.6777C484.219 48.2338 474.841 75.3212 452.728 86.0958C408.403 107.746 316.791 130.503 251.833 143.594C206.817 152.656 132.185 165.646 75.619 165.646Z" fill="url(#paint0_linear_115_45)"/>
<path d="M191.615 448C168.021 448 148.474 429.17 147.29 404.902C146.105 379.929 164.961 358.682 189.542 357.474C263.088 353.849 327.552 336.831 381.058 306.823C402.578 294.74 429.529 302.795 441.375 324.747C453.222 346.699 445.324 374.189 423.803 386.273C358.352 422.926 280.956 443.67 193.787 448C192.997 448 192.306 448 191.615 448Z" fill="url(#paint1_linear_115_45)"/>
<path d="M112.343 304.306C89.6373 304.306 70.2882 286.684 68.1164 263.121C65.8459 238.249 83.8128 216.095 108.295 213.88C229.622 202.501 289.446 178.636 377.602 129.295C399.123 117.312 426.073 125.267 437.92 147.219C449.667 169.171 441.869 196.661 420.348 208.744C374.641 234.321 334.462 254.662 287.076 270.572C237.815 287.087 183.618 297.76 116.489 304.104C115.107 304.205 113.725 304.306 112.343 304.306Z" fill="url(#paint2_linear_115_45)"/>
</g>
<defs>
<linearGradient id="paint0_linear_115_45" x1="0.18433" y1="81.7278" x2="477.588" y2="85.8798" gradientUnits="userSpaceOnUse">
<stop stop-color="#65EF6A"/>
<stop offset="1" stop-color="#092D00"/>
</linearGradient>
<linearGradient id="paint1_linear_115_45" x1="147.368" y1="373.675" x2="446.639" y2="375.517" gradientUnits="userSpaceOnUse">
<stop stop-color="#65EF6A"/>
<stop offset="1" stop-color="#092D00"/>
</linearGradient>
<linearGradient id="paint2_linear_115_45" x1="68.0872" y1="212.873" x2="443.077" y2="215.224" gradientUnits="userSpaceOnUse">
<stop stop-color="#65EF6A"/>
<stop offset="1" stop-color="#092D00"/>
</linearGradient>
<clipPath id="clip0_115_45">
<rect width="478" height="448" fill="white"/>
</clipPath>
</defs>
</svg>
