<svg width="925" height="761" viewBox="0 0 925 761" fill="none" xmlns="http://www.w3.org/2000/svg">
<g clip-path="url(#clip0_111_13)">
<path d="M732.472 731.653C725.685 731.653 718.899 731.15 712.113 729.893C477.61 687.386 207.669 607.404 -48.1978 504.785C-106.258 481.394 -134.408 415.748 -111.033 357.647C-87.6586 299.547 -22.0582 271.377 36.0019 294.768C278.045 391.854 532.403 467.309 752.328 507.3C813.907 518.367 854.624 577.222 843.565 638.844C833.763 693.423 786.259 731.653 732.472 731.653Z" fill="#6CA45E"/>
<path d="M723.926 288.229C721.161 288.229 718.648 288.229 715.883 287.977C334.848 261.316 32.9858 218.81 -206.795 157.943C-267.368 142.6 -304.064 80.9784 -288.481 20.3628C-273.149 -40.2529 -211.57 -76.7229 -150.997 -61.3803C75.4626 -3.78289 364.255 36.7114 731.718 62.3661C794.051 66.6419 841.052 120.718 836.779 183.094C832.506 242.704 782.74 288.229 723.926 288.229Z" fill="#6CA45E"/>
<path d="M-99.4717 166.746C-135.916 166.746 -169.345 164.734 -197.747 159.955C-259.325 149.643 -300.797 91.0392 -290.492 29.4175C-280.187 -32.2043 -221.624 -73.7046 -160.045 -63.3924C-101.231 -53.3317 52.0878 -60.6257 305.692 -110.426C500.231 -148.657 688.235 -200.218 763.135 -236.185C819.436 -263.097 887.047 -239.203 913.941 -182.863C940.835 -126.523 916.957 -58.8651 860.656 -31.9527C747.804 22.1235 514.558 78.9664 349.174 111.664C234.562 134.3 44.5475 166.746 -99.4717 166.746Z" fill="url(#paint0_linear_111_13)"/>
<path d="M195.856 872C135.785 872 86.0189 824.966 83.0028 764.351C79.9867 701.974 127.993 648.904 190.577 645.886C377.828 636.831 541.954 594.325 678.182 519.373C732.974 489.191 801.591 509.312 831.752 564.143C861.913 618.974 841.806 687.638 787.013 717.82C620.373 809.372 423.321 861.185 201.385 872C199.374 872 197.615 872 195.856 872Z" fill="url(#paint1_linear_111_13)"/>
<path d="M-5.97233 513.085C-63.7811 513.085 -113.044 469.069 -118.574 410.214C-124.355 348.09 -78.6103 292.756 -16.2774 287.222C292.622 258.801 444.936 199.191 669.385 75.948C724.177 46.0175 792.794 65.8874 822.955 120.718C852.865 175.549 833.009 244.213 778.216 274.395C661.844 338.28 559.548 389.087 438.904 428.827C313.484 470.076 175.497 496.736 4.58405 512.582C1.06525 512.833 -2.45353 513.085 -5.97233 513.085Z" fill="url(#paint2_linear_111_13)"/>
</g>
<defs>
<linearGradient id="paint0_linear_111_13" x1="-291.53" y1="-42.8629" x2="923.949" y2="-32.0876" gradientUnits="userSpaceOnUse">
<stop stop-color="#65EF6A"/>
<stop offset="1" stop-color="#092D00"/>
</linearGradient>
<linearGradient id="paint1_linear_111_13" x1="83.2021" y1="686.354" x2="845.153" y2="691.135" gradientUnits="userSpaceOnUse">
<stop stop-color="#65EF6A"/>
<stop offset="1" stop-color="#092D00"/>
</linearGradient>
<linearGradient id="paint2_linear_111_13" x1="-118.648" y1="284.707" x2="836.085" y2="290.809" gradientUnits="userSpaceOnUse">
<stop stop-color="#65EF6A"/>
<stop offset="1" stop-color="#092D00"/>
</linearGradient>
<clipPath id="clip0_111_13">
<rect width="1217" height="1119" fill="white" transform="translate(-292 -247)"/>
</clipPath>
</defs>
</svg>
